<svg width="4035" height="2430" viewBox="0 0 4035 2430" fill="none" xmlns="http://www.w3.org/2000/svg">
<g clip-path="url(#clip0_649_1000)">
<path d="M1318.8 1397.22C1364.24 1294.3 1410.25 1224.98 1504 1159L1504 1106.5C1427.6 1158.59 1332.99 1294.3 1318.8 1397.22Z" fill="#F1A143"/>
<path d="M1315.63 1395C1282.61 1287.45 1227.35 1200.71 1142.01 1124.16L1155.9 1082.49C1232.29 1138.05 1315.63 1294.3 1315.63 1395Z" fill="#F1A143"/>
<path d="M1318.95 1409.1C1324.23 1334.12 1427.61 1117.2 1504 1079L1504 1032.5C1406.77 1067.22 1305.21 1280.41 1318.95 1409.1Z" fill="#F1A143"/>
<path d="M1315.53 1401.78C1317.68 1326.65 1235.09 1107.21 1162.84 1061.65L1166.31 1023.46C1263.54 1068.6 1341.92 1275.09 1315.53 1401.78Z" fill="#F1A143"/>
<path d="M3736.79 2081C3652 2081 3563.63 2040.13 3534.96 1965.62L3647.22 1909.12C3668.72 1949.99 3702.16 1959.61 3727.24 1959.61C3752.32 1959.61 3769.04 1948.79 3769.04 1929.56C3769.04 1912.73 3754.71 1900.71 3711.71 1883.88C3656.78 1863.45 3561.24 1831 3561.24 1734.85C3561.24 1653.12 3630.5 1581 3739.18 1581C3806.06 1581 3864.58 1608.64 3900.41 1644.7L3823.98 1731.24C3809.64 1713.21 3780.98 1696.38 3749.93 1696.38C3723.66 1696.38 3711.71 1708.4 3711.71 1724.03C3711.71 1742.06 3728.43 1749.27 3763.07 1763.69C3831.14 1790.13 3909.96 1828.6 3909.96 1924.75C3909.96 2014.89 3844.28 2081 3736.79 2081Z" fill="#061726"/>
<path d="M3492.96 1830.4V1856.78H3126.47C3132.45 1925.12 3168.39 1967.09 3237.85 1967.09C3290.55 1967.09 3325.28 1944.31 3338.46 1905.94H3485.78C3461.82 2010.26 3373.19 2081 3240.25 2081C3079.76 2081 2971.96 1981.48 2971.96 1831.6C2971.96 1681.72 3080.95 1581 3235.46 1581C3389.96 1581 3492.96 1680.52 3492.96 1830.4ZM3237.85 1698.51C3183.96 1698.51 3151.62 1723.69 3136.05 1764.45H3334.87C3319.3 1722.49 3289.35 1698.51 3237.85 1698.51Z" fill="#061726"/>
<path d="M2728.96 2080L2728.96 1410H2881.96V2080H2728.96Z" fill="#061726"/>
<path d="M883.5 433C840.343 433 804 396.657 804 353.5C804 309.207 840.343 274 883.5 274C926.657 274 963 309.207 963 353.5C963 396.657 926.657 433 883.5 433Z" fill="#061726"/>
<path d="M2638.38 1946.38H2659.96V2071.38C2649.17 2076.19 2634.78 2081 2619.19 2081C2554.43 2081 2501.67 2048.55 2471.69 1999.27C2433.32 2049.75 2376.95 2081 2307.4 2081C2174.29 2081 2069.96 1970.42 2069.96 1831C2069.96 1691.58 2174.29 1581 2307.4 1581C2362.56 1581 2408.13 1600.23 2444.11 1632.68V1590.62H2596.41V1899.51C2596.41 1939.17 2617.99 1946.38 2638.38 1946.38ZM2337.38 1945.18C2399.74 1945.18 2451.3 1894.7 2451.3 1831C2451.3 1767.3 2399.74 1716.82 2337.38 1716.82C2273.82 1716.82 2223.46 1767.3 2223.46 1831C2223.46 1894.7 2273.82 1945.18 2337.38 1945.18Z" fill="#061726"/>
<path d="M2027.96 1706.57H1913.9V1879.85C1913.9 1919.84 1936.71 1945.28 1969.13 1945.28H2026.76V2065.25C2014.76 2073.73 1982.34 2081 1949.92 2081C1847.86 2081 1761.41 2001.02 1761.41 1898.03V1706.57H1680.96V1586.61H1761.41V1400H1913.9V1586.61H2027.96V1706.57Z" fill="#061726"/>
<path d="M1204.96 472C1081.51 472 1000.92 564.241 969.524 614.315L804.5 603L777.249 614.315C774.099 624.046 765.063 628.932 762.5 638C748.499 734.5 754.328 833.395 836.109 902.899C927.498 980.569 1107.44 1007.64 1221.5 999.048C1158.5 919 1217.5 795.5 1217.5 795.5C1217.5 795.5 1184 901.5 1253.5 993.5C1289.58 1041.26 1337.3 1067.67 1393.31 1061.03C1496.2 1048.83 1514.96 902.898 1499.26 772.443C1470.18 530.74 1328.42 472 1204.96 472Z" fill="#F1A143"/>
<path d="M854 606C854 606 799.118 594.853 776.306 614.078C755.933 631.247 758.944 680.053 758.944 680.053C822.836 685.609 849.37 630.307 854 606Z" fill="#061726"/>
<circle cx="1128.44" cy="676.234" r="30.9047" fill="#061726"/>
<path d="M1504.14 1176.32V1967.45C1504.14 2029.86 1453.55 2080.45 1391.14 2080.45H860.394C764.687 2080.45 676.199 1995.99 672.401 1903.08C668.603 1810.17 640.498 1636.08 672.402 1514.45C706.718 1383.63 901.305 1314.73 983.278 1263.13C1104.86 1186.6 1128.15 1142.9 1128.15 1142.9C1240.24 1217.99 1285.38 1287.44 1321.84 1383.63C1340.07 1302.54 1420.8 1214.52 1504.14 1176.32Z" fill="#F1A143"/>
<path d="M785.768 1702.72C508.976 1669.74 286.107 1461.29 271.304 1203.94C90.9472 1505.24 209.712 1773.4 450.335 1858.13C913.61 2021.25 1067.54 1736.29 785.768 1702.72Z" fill="#F1A143"/>
<path d="M631.988 1685.42C390.172 1823.15 328.623 1759.62 127.344 1615.33C251.497 1957.08 519.52 2017.1 718.754 1858.51C886.602 1724.9 654.976 1672.32 631.988 1685.42Z" fill="#F1A143"/>
<path d="M570.837 1721.56C554.468 1899.42 540.097 1953.85 328.367 1966.14C470.033 2059.06 592.5 2082.5 729.5 2082.5C834.501 2082.5 1021.5 2082.5 1021.5 2082.5C1021.5 2082.5 848.854 1698.55 570.837 1721.56Z" fill="#F1A143"/>
<path d="M3006.96 1300V480H3159.96V1300H3006.96Z" fill="#061726"/>
<path d="M2728.96 1300V820H2881.96V1300H2728.96Z" fill="#061726"/>
<path d="M2638.38 1165.38H2659.96V1290.38C2649.17 1295.19 2634.78 1300 2619.19 1300C2554.43 1300 2501.67 1267.55 2471.69 1218.27C2433.32 1268.75 2376.95 1300 2307.4 1300C2174.29 1300 2069.96 1189.42 2069.96 1050C2069.96 910.577 2174.29 800 2307.4 800C2362.56 800 2408.13 819.231 2444.11 851.683V809.615H2596.41V1118.51C2596.41 1158.17 2617.99 1165.38 2638.38 1165.38ZM2337.38 1164.18C2399.74 1164.18 2451.3 1113.7 2451.3 1050C2451.3 986.298 2399.74 935.817 2337.38 935.817C2273.82 935.817 2223.46 986.298 2223.46 1050C2223.46 1113.7 2273.82 1164.18 2337.38 1164.18Z" fill="#061726"/>
<path d="M2027.96 925.571H1913.9V1098.85C1913.9 1138.84 1936.71 1164.28 1969.13 1164.28H2026.76V1284.25C2014.76 1292.73 1982.34 1300 1949.92 1300C1847.86 1300 1761.41 1220.02 1761.41 1117.03V925.571H1680.96V805.609H1761.41V619H1913.9V805.609H2027.96V925.571Z" fill="#061726"/>
</g>
<defs>
<clipPath id="clip0_649_1000">
<rect width="4035" height="2430" fill="white"/>
</clipPath>
</defs>
</svg>
